<?xml version="1.0" ?><svg height="64" id="svg2" version="1.1" viewBox="0 0 64.000001 64.000001" width="64" xmlns="http://www.w3.org/2000/svg" xmlns:cc="http://creativecommons.org/ns#" xmlns:dc="http://purl.org/dc/elements/1.1/" xmlns:inkscape="http://www.inkscape.org/namespaces/inkscape" xmlns:rdf="http://www.w3.org/1999/02/22-rdf-syntax-ns#" xmlns:sodipodi="http://sodipodi.sourceforge.net/DTD/sodipodi-0.dtd" xmlns:svg="http://www.w3.org/2000/svg"><defs id="defs4"/><g id="layer1" transform="translate(0,-988.36218)"><path d="m 60,1019.8622 a 27.5,27.5 0 0 1 -27.5,27.5 27.5,27.5 0 0 1 -27.5,-27.5 27.5,27.5 0 0 1 27.5,-27.50002 27.5,27.5 0 0 1 27.5,27.50002 z" id="path4476" style="opacity:1;fill:#800000;fill-opacity:1;stroke:none;stroke-width:2;stroke-linecap:butt;stroke-linejoin:miter;stroke-miterlimit:4;stroke-dasharray:none;stroke-dashoffset:0;stroke-opacity:1"/><path d="M 45.833984 19 L 45.496094 19.21875 L 46.052734 19.21875 L 45.833984 19 z M 43.544922 20.484375 L 43.539062 20.488281 L 47.251953 20.488281 L 47.251953 34.875 L 47.251953 35.755859 L 47.251953 37.208984 L 49.867188 37.208984 L 49.867188 38.376953 L 46.146484 42.095703 L 18.453125 42.095703 L 15.21875 38.859375 L 15 39 L 35.15625 58.845703 A 27.5 27.5 0 0 0 59.921875 33.087891 L 47.318359 20.484375 L 43.544922 20.484375 z " id="path4545" style="opacity:1;fill:#550000;fill-opacity:1;stroke:none;stroke-width:2;stroke-linecap:butt;stroke-linejoin:miter;stroke-miterlimit:4;stroke-dasharray:none;stroke-dashoffset:0;stroke-opacity:1" transform="translate(0,988.36218)"/><path d="M 17.658203 20.488281 L 17.658203 21.121094 L 17.658203 35.755859 L 18.921875 35.755859 L 18.921875 21.751953 L 30.650391 21.751953 C 30.710831 21.237153 30.988991 20.783681 31.392578 20.488281 L 17.658203 20.488281 z M 33.517578 20.488281 C 33.921165 20.783681 34.199323 21.237153 34.259766 21.751953 L 45.988281 21.751953 L 45.988281 34.875 L 45.988281 35.722656 L 47.251953 35.722656 L 47.251953 34.875 L 47.251953 20.488281 L 33.517578 20.488281 z M 32.455078 20.980469 C 31.923224 20.980469 31.478516 21.425131 31.478516 21.957031 C 31.478516 22.488831 31.923224 22.933594 32.455078 22.933594 C 32.986931 22.933594 33.431641 22.488831 33.431641 21.957031 C 33.431641 21.425131 32.986931 20.980469 32.455078 20.980469 z M 32.455078 21.667969 C 32.606541 21.667969 32.742187 21.805531 32.742188 21.957031 C 32.742188 22.108431 32.606541 22.244141 32.455078 22.244141 C 32.303614 22.244141 32.167969 22.108431 32.167969 21.957031 C 32.167969 21.805531 32.303614 21.667969 32.455078 21.667969 z M 45.988281 37.152344 L 45.988281 37.208984 L 37.472656 37.208984 L 37.472656 38.71875 L 27.4375 38.71875 L 27.4375 37.208984 L 15.044922 37.208984 L 15.044922 37.841797 L 15.044922 38.685547 L 18.453125 42.095703 L 46.146484 42.095703 L 49.867188 38.376953 L 49.867188 37.208984 L 47.251953 37.208984 L 47.251953 37.152344 L 45.988281 37.152344 z M 16.619141 38.472656 L 26.173828 38.472656 L 26.173828 39.982422 L 38.736328 39.982422 L 38.736328 38.472656 L 47.980469 38.472656 L 45.623047 40.830078 L 18.976562 40.830078 L 16.619141 38.472656 z " id="rect3995" style="color:#000000;font-style:normal;font-variant:normal;font-weight:normal;font-stretch:normal;font-size:medium;line-height:normal;font-family:sans-serif;text-indent:0;text-align:start;text-decoration:none;text-decoration-line:none;text-decoration-style:solid;text-decoration-color:#000000;letter-spacing:normal;word-spacing:normal;text-transform:none;direction:ltr;block-progression:tb;writing-mode:lr-tb;baseline-shift:baseline;text-anchor:start;white-space:normal;clip-rule:nonzero;display:inline;overflow:visible;visibility:visible;opacity:1;isolation:auto;mix-blend-mode:normal;color-interpolation:sRGB;color-interpolation-filters:linearRGB;solid-color:#000000;solid-opacity:1;fill:#ffffff;fill-opacity:1;fill-rule:nonzero;stroke:none;stroke-width:2;stroke-linecap:round;stroke-linejoin:miter;stroke-miterlimit:4;stroke-dasharray:none;stroke-dashoffset:0;stroke-opacity:1;color-rendering:auto;image-rendering:auto;shape-rendering:auto;text-rendering:auto;enable-background:accumulate" transform="translate(0,988.36218)"/></g></svg>