<?xml version="1.0"?>
<svg xmlns="http://www.w3.org/2000/svg" height="512px" viewBox="0 0 512 512" width="512px"><path d="m204.097656 108.128906c-.878906-2.054687-2.140625-3.800781-3.78125-5.238281-1.644531-1.4375-3.621094-2.679687-5.9375-3.738281-2.316406-1.054688-4.914062-2.023438-7.785156-2.902344-.648438-.175781-1.261719-.367188-1.847656-.570312-.585938-.207032-1.144532-.367188-1.671875-.484376v-7.917968c1.640625.292968 3.269531.71875 4.882812 1.273437 1.613281.558594 3.0625 1.160157 4.355469 1.804688 1.523438.703125 2.929688 1.464843 4.21875 2.289062l7.390625-14.164062c-1.230469-.585938-2.582031-1.21875-4.046875-1.890625-1.46875-.675782-3.035156-1.320313-4.707031-1.9375-1.671875-.617188-3.414063-1.15625-5.234375-1.625-1.816406-.46875-3.691406-.824219-5.628906-1.058594v-8.96875h-7.035157v8.886719c-2.757812.292969-5.355469.964843-7.785156 2.019531-2.4375 1.058594-4.5625 2.464844-6.378906 4.226562-1.820313 1.757813-3.253907 3.855469-4.3125 6.289063-1.054688 2.433594-1.582031 5.230469-1.582031 8.398437 0 2.289063.308593 4.3125.925781 6.070313.613281 1.761719 1.566406 3.332031 2.855469 4.707031 1.289062 1.378906 2.933593 2.613282 4.929687 3.695313 1.992187 1.085937 4.367187 2.097656 7.125 3.035156 1.816406.644531 3.632813 1.203125 5.453125 1.671875v7.738281c-2.113281-.292969-4.179688-.804687-6.203125-1.539062-2.023437-.730469-3.796875-1.480469-5.320313-2.242188-1.820312-.878906-3.519531-1.816406-5.105468-2.816406l-7.386719 15.042969c3.167969 1.878906 6.742187 3.429687 10.730469 4.664062 3.988281 1.230469 8.007812 2.023438 12.054687 2.375v10.820313h7.035157v-10.644531c2.699218-.175782 5.308593-.660157 7.828124-1.453126 2.523438-.792968 4.765626-1.964843 6.730469-3.519531 1.964844-1.550781 3.546875-3.546875 4.75-5.980469 1.203125-2.433593 1.804688-5.378906 1.804688-8.839843 0-2.933594-.441407-5.425781-1.320313-7.476563zm-25.597656-14.429687c-1.175781-.46875-2.054688-.980469-2.640625-1.539063-.585937-.554687-.878906-1.273437-.878906-2.152344 0-1.703124 1.171875-2.699218 3.519531-2.992187zm7.566406 25.421875c-.589844.472656-1.585937.765625-2.992187.882812v-6.511718c1.171875.472656 2.109375 1.011718 2.816406 1.625.703125.617187 1.054687 1.335937 1.054687 2.15625 0 .765624-.292968 1.378906-.878906 1.847656zm0 0" fill="#FFFFFF"/><path d="m360.613281 406.617188c0 .875.082031 1.769531.25 2.683593h-3.871093l-4.992188 12.480469h12.355469c1.582031 3.828125 3.640625 7.386719 6.179687 10.671875 2.539063 3.289063 5.429688 6.160156 8.675782 8.613281 3.242187 2.457032 6.820312 4.367188 10.734374 5.742188 3.910157 1.371094 8.113282 2.058594 12.605469 2.058594 3.496094 0 7.070313-.457032 10.734375-1.375 3.660156-.914063 7.113282-2.246094 10.359375-3.992188 3.246094-1.746094 6.136719-3.910156 8.675781-6.488281 2.535157-2.582031 4.429688-5.492188 5.679688-8.738281l-19.847656-11.859376c-.667969 1.996094-1.558594 3.683594-2.683594 5.054688-1.125 1.375-2.371094 2.496094-3.746094 3.371094-1.371094.875-2.808594 1.5-4.304687 1.875-1.496094.371094-2.953125.558594-4.367188.558594-2.417969 0-4.621093-.496094-6.617187-1.496094s-3.742188-2.328125-5.242188-3.996094h11.359375l4.992188-12.480469h-21.96875c-.25-1.746093-.375-3.535156-.375-5.367187h20.847656l4.988281-12.484375h-23.464844c1.414063-3.074219 3.351563-5.65625 5.804688-7.738281 2.453125-2.078126 5.597656-3.117188 9.425781-3.117188 1.328125 0 2.785157.167969 4.367188.5s3.078125.914062 4.492187 1.746094c1.414063.832031 2.726563 1.957031 3.933594 3.371094 1.207031 1.414062 2.183594 3.203124 2.933594 5.367187l18.597656-13.230469c-2.828125-5.824218-7.195312-10.503906-13.105469-14.042968-5.910156-3.535157-12.816406-5.304688-20.71875-5.304688-5.492187 0-10.527343.871094-15.101562 2.621094-4.578125 1.746094-8.613281 4.117187-12.109375 7.113281-3.492188 2.996094-6.449219 6.449219-8.863282 10.363281-2.414062 3.910156-4.160156 8.027344-5.242187 12.355469h-4.992187l-4.992188 12.480469h8.488281c.082031.917968.125 1.808594.125 2.683594zm0 0" fill="#FFFFFF"/><path d="m461 302v-212h-101v-90h-360v210h51v212h101v90h360v-210zm-372.507812-122c-5.980469-29.34375-29.148438-52.511719-58.492188-58.492188v-33.015624c29.34375-5.980469 52.511719-29.148438 58.492188-58.492188h183.015624c5.980469 29.34375 29.148438 52.511719 58.492188 58.492188v33.019531c-29.34375 5.976562-52.511719 29.144531-58.492188 58.488281zm241.507812-27.421875v27.421875h-27.421875c4.527344-12.765625 14.65625-22.894531 27.421875-27.421875zm0-95.15625c-12.765625-4.527344-22.894531-14.65625-27.421875-27.421875h27.421875zm-272.578125-27.421875c-4.527344 12.765625-14.65625 22.894531-27.421875 27.421875v-27.421875zm-27.421875 122.578125c12.765625 4.527344 22.894531 14.65625 27.421875 27.421875h-27.421875zm51 239.421875v-182h279v-90h71v182h-279v90zm101-60h50v150h-50zm300 150h-220v-150h220zm0 0" fill="#FFFFFF"/></svg>
